<svg height="128" width="128" xmlns="http://www.w3.org/2000/svg">
    <rect width="128" height="128" fill="#69aee8" />
    <path d="M-22 56h134v98H-22z" fill="#326fa2" />
    <path d="M-58.8 81c19 14.7 41.5 19.3 54.7 13.9 13.4-5.4 18-19.1 36.6-21.7 18.7-2.6 42.1 11.5 54.3 22 12.3 10.6 15 17.5 35 15.6 19.9-2 49.3-15.6 49.3-15.6V152H-58.8z" fill="#4dabf7" />
    <g fill="#212529" >
     <circle cx="64" cy="64" r="54" />
     <path d="M37 99h54v14H37z" />
     <circle cx="41" cy="99" r="4" />
     <circle cx="51" cy="99" r="4" />
     <circle cx="61" cy="99" r="4" />
     <circle cx="71" cy="99" r="4" />
     <circle cx="81" cy="99" r="4" />
     <circle cx="81" cy="113" r="4" />
     <circle cx="71" cy="113" r="4" />
     <circle cx="61" cy="113" r="4" />
     <circle cx="51" cy="113" r="4" />
     <circle cx="41" cy="113" r="4" />
     <path d="M49 83c0-4.6 24-11 32 0" opacity=".2" fill="none" stroke="#fff" stroke-width="3" stroke-linecap="round" />
     <path d="M41 40c0-1 4-6 10-2s4 13 4 13l-14-11z" />
     <path d="M87 40c0-1-4-6-10-2s-4 13-4 13l14-11z" />
     <circle cx="64" cy="64" r="38" fill="#d7ccc8" />
     <circle cx="64" cy="64" r="30" fill="#fff" />
     <circle cx="54" cy="64" r="4" />
     <circle cx="74" cy="64" r="4" />
    </g>
</svg>
